<svg xmlns="http://www.w3.org/2000/svg" xmlns:xlink="http://www.w3.org/1999/xlink" width="176" zoomAndPan="magnify" viewBox="0 0 132 30.000001" height="40" preserveAspectRatio="xMidYMid meet" version="1.0"><defs><g/><clipPath id="4d1b699ff2"><path d="M 2.128906 2 L 26 2 L 26 27 L 2.128906 27 Z M 2.128906 2 " clip-rule="nonzero"/></clipPath><clipPath id="7f8eecc14c"><path d="M 107 2 L 129.871094 2 L 129.871094 27 L 107 27 Z M 107 2 " clip-rule="nonzero"/></clipPath></defs><g clip-path="url(#4d1b699ff2)"><g fill="#ff0000" fill-opacity="1"><g transform="translate(2.146595, 26.684319)"><g><path d="M 23.578125 0 L 23.578125 -5.46875 L 8.199219 -5.46875 L 8.199219 -9.226562 L 20.160156 -9.226562 L 20.160156 -14.695312 L 8.199219 -14.695312 L 8.199219 -18.453125 L 23.578125 -18.453125 L 23.578125 -23.921875 L 0.171875 -23.921875 L 0.171875 -18.453125 L 2.734375 -18.453125 L 2.734375 0 Z M 23.578125 0 "/></g></g></g></g><g fill="#ff0000" fill-opacity="1"><g transform="translate(31.089727, 26.684319)"><g><path d="M 23.578125 0 L 23.578125 -5.46875 L 8.199219 -5.46875 L 8.199219 -23.921875 L 0.171875 -23.921875 L 0.171875 -18.453125 L 2.734375 -18.453125 L 2.734375 0 Z M 23.578125 0 "/></g></g></g><g fill="#ff0000" fill-opacity="1"><g transform="translate(58.666007, 26.684319)"><g><path d="M 7.175781 0 L 7.175781 -23.921875 L 1.707031 -23.921875 L 1.707031 0 Z M 7.175781 0 "/></g></g></g><g fill="#ff0000" fill-opacity="1"><g transform="translate(71.206892, 26.684319)"><g><path d="M 25.800781 0 L 25.800781 -20.503906 L 22.382812 -23.921875 L 2.5625 -23.921875 L 2.5625 -18.453125 L 20.332031 -18.453125 L 20.332031 -14.695312 L 5.125 -14.695312 L 1.707031 -11.277344 L 1.707031 -3.417969 L 5.125 0 L 18.625 0 L 18.625 -5.46875 L 7.175781 -5.46875 L 7.175781 -9.226562 L 20.332031 -9.226562 L 20.332031 -3.417969 L 23.75 0 Z M 25.800781 0 "/></g></g></g><g fill="#ff0000" fill-opacity="1"><g transform="translate(102.371157, 26.684319)"><g><path d="M 21.015625 0 L 24.433594 -3.417969 L 24.433594 -11.277344 L 21.015625 -14.695312 L 7.175781 -14.695312 L 7.175781 -18.453125 L 24.433594 -18.453125 L 24.433594 -23.921875 L 5.125 -23.921875 L 1.707031 -20.503906 L 1.707031 -12.644531 L 5.125 -9.226562 L 18.964844 -9.226562 L 18.964844 -5.46875 L 1.707031 -5.46875 L 1.707031 0 Z M 21.015625 0 "/></g></g></g><g fill="#00ffff" fill-opacity="1"><g transform="translate(5.538257, 26.267875)"><g><path d="M 23.578125 0 L 23.578125 -5.46875 L 8.199219 -5.46875 L 8.199219 -9.226562 L 20.160156 -9.226562 L 20.160156 -14.695312 L 8.199219 -14.695312 L 8.199219 -18.453125 L 23.578125 -18.453125 L 23.578125 -23.921875 L 0.171875 -23.921875 L 0.171875 -18.453125 L 2.734375 -18.453125 L 2.734375 0 Z M 23.578125 0 "/></g></g></g><g fill="#00ffff" fill-opacity="1"><g transform="translate(34.481389, 26.267875)"><g><path d="M 23.578125 0 L 23.578125 -5.46875 L 8.199219 -5.46875 L 8.199219 -23.921875 L 0.171875 -23.921875 L 0.171875 -18.453125 L 2.734375 -18.453125 L 2.734375 0 Z M 23.578125 0 "/></g></g></g><g fill="#00ffff" fill-opacity="1"><g transform="translate(62.05767, 26.267875)"><g><path d="M 7.175781 0 L 7.175781 -23.921875 L 1.707031 -23.921875 L 1.707031 0 Z M 7.175781 0 "/></g></g></g><g fill="#00ffff" fill-opacity="1"><g transform="translate(74.598555, 26.267875)"><g><path d="M 25.800781 0 L 25.800781 -20.503906 L 22.382812 -23.921875 L 2.5625 -23.921875 L 2.5625 -18.453125 L 20.332031 -18.453125 L 20.332031 -14.695312 L 5.125 -14.695312 L 1.707031 -11.277344 L 1.707031 -3.417969 L 5.125 0 L 18.625 0 L 18.625 -5.46875 L 7.175781 -5.46875 L 7.175781 -9.226562 L 20.332031 -9.226562 L 20.332031 -3.417969 L 23.75 0 Z M 25.800781 0 "/></g></g></g><g clip-path="url(#7f8eecc14c)"><g fill="#00ffff" fill-opacity="1"><g transform="translate(105.762819, 26.267875)"><g><path d="M 21.015625 0 L 24.433594 -3.417969 L 24.433594 -11.277344 L 21.015625 -14.695312 L 7.175781 -14.695312 L 7.175781 -18.453125 L 24.433594 -18.453125 L 24.433594 -23.921875 L 5.125 -23.921875 L 1.707031 -20.503906 L 1.707031 -12.644531 L 5.125 -9.226562 L 18.964844 -9.226562 L 18.964844 -5.46875 L 1.707031 -5.46875 L 1.707031 0 Z M 21.015625 0 "/></g></g></g></g><g fill="#88ff55" fill-opacity="1"><g transform="translate(3.842426, 26.476097)"><g><path d="M 23.578125 0 L 23.578125 -5.46875 L 8.199219 -5.46875 L 8.199219 -9.226562 L 20.160156 -9.226562 L 20.160156 -14.695312 L 8.199219 -14.695312 L 8.199219 -18.453125 L 23.578125 -18.453125 L 23.578125 -23.921875 L 0.171875 -23.921875 L 0.171875 -18.453125 L 2.734375 -18.453125 L 2.734375 0 Z M 23.578125 0 "/></g></g></g><g fill="#88ff55" fill-opacity="1"><g transform="translate(32.785558, 26.476097)"><g><path d="M 23.578125 0 L 23.578125 -5.46875 L 8.199219 -5.46875 L 8.199219 -23.921875 L 0.171875 -23.921875 L 0.171875 -18.453125 L 2.734375 -18.453125 L 2.734375 0 Z M 23.578125 0 "/></g></g></g><g fill="#88ff55" fill-opacity="1"><g transform="translate(60.361838, 26.476097)"><g><path d="M 7.175781 0 L 7.175781 -23.921875 L 1.707031 -23.921875 L 1.707031 0 Z M 7.175781 0 "/></g></g></g><g fill="#88ff55" fill-opacity="1"><g transform="translate(72.902724, 26.476097)"><g><path d="M 25.800781 0 L 25.800781 -20.503906 L 22.382812 -23.921875 L 2.5625 -23.921875 L 2.5625 -18.453125 L 20.332031 -18.453125 L 20.332031 -14.695312 L 5.125 -14.695312 L 1.707031 -11.277344 L 1.707031 -3.417969 L 5.125 0 L 18.625 0 L 18.625 -5.46875 L 7.175781 -5.46875 L 7.175781 -9.226562 L 20.332031 -9.226562 L 20.332031 -3.417969 L 23.75 0 Z M 25.800781 0 "/></g></g></g><g fill="#88ff55" fill-opacity="1"><g transform="translate(104.066988, 26.476097)"><g><path d="M 21.015625 0 L 24.433594 -3.417969 L 24.433594 -11.277344 L 21.015625 -14.695312 L 7.175781 -14.695312 L 7.175781 -18.453125 L 24.433594 -18.453125 L 24.433594 -23.921875 L 5.125 -23.921875 L 1.707031 -20.503906 L 1.707031 -12.644531 L 5.125 -9.226562 L 18.964844 -9.226562 L 18.964844 -5.46875 L 1.707031 -5.46875 L 1.707031 0 Z M 21.015625 0 "/></g></g></g></svg>